<mxfile host="app.diagrams.net" modified="2022-03-14T02:39:16.764Z" agent="5.0 (Windows)" etag="oqBc_Vz0SfPIal0Nx9MB" version="17.1.2" type="github">
  <diagram id="DbG2_kXGBq3T1NDGIctY" name="Page-1">
    <mxGraphModel dx="2985" dy="2089" grid="1" gridSize="10" guides="1" tooltips="1" connect="1" arrows="1" fold="1" page="0" pageScale="1" pageWidth="1100" pageHeight="850" background="none" math="0" shadow="0">
      <root>
        <mxCell id="0" />
        <mxCell id="1" parent="0" />
        <mxCell id="eYWpQT8jt0v1apSOE-1P-14" style="edgeStyle=orthogonalEdgeStyle;rounded=0;orthogonalLoop=1;jettySize=auto;html=1;entryX=0;entryY=0.5;entryDx=0;entryDy=0;" edge="1" parent="1" source="eYWpQT8jt0v1apSOE-1P-1" target="eYWpQT8jt0v1apSOE-1P-2">
          <mxGeometry relative="1" as="geometry" />
        </mxCell>
        <mxCell id="eYWpQT8jt0v1apSOE-1P-1" value="Start" style="ellipse;whiteSpace=wrap;html=1;" vertex="1" parent="1">
          <mxGeometry x="-100" y="-40" width="90" height="60" as="geometry" />
        </mxCell>
        <mxCell id="eYWpQT8jt0v1apSOE-1P-15" style="edgeStyle=orthogonalEdgeStyle;rounded=0;orthogonalLoop=1;jettySize=auto;html=1;entryX=0;entryY=0.5;entryDx=0;entryDy=0;" edge="1" parent="1" source="eYWpQT8jt0v1apSOE-1P-2" target="eYWpQT8jt0v1apSOE-1P-3">
          <mxGeometry relative="1" as="geometry" />
        </mxCell>
        <mxCell id="eYWpQT8jt0v1apSOE-1P-2" value="cin0_1" style="ellipse;whiteSpace=wrap;html=1;" vertex="1" parent="1">
          <mxGeometry x="50" y="-40" width="90" height="60" as="geometry" />
        </mxCell>
        <mxCell id="eYWpQT8jt0v1apSOE-1P-16" style="edgeStyle=orthogonalEdgeStyle;rounded=0;orthogonalLoop=1;jettySize=auto;html=1;entryX=0;entryY=0.5;entryDx=0;entryDy=0;" edge="1" parent="1" source="eYWpQT8jt0v1apSOE-1P-3" target="eYWpQT8jt0v1apSOE-1P-4">
          <mxGeometry relative="1" as="geometry" />
        </mxCell>
        <mxCell id="eYWpQT8jt0v1apSOE-1P-17" style="edgeStyle=orthogonalEdgeStyle;rounded=0;orthogonalLoop=1;jettySize=auto;html=1;entryX=0;entryY=0.5;entryDx=0;entryDy=0;" edge="1" parent="1" source="eYWpQT8jt0v1apSOE-1P-3" target="eYWpQT8jt0v1apSOE-1P-7">
          <mxGeometry relative="1" as="geometry">
            <mxPoint x="245" y="110" as="targetPoint" />
            <Array as="points">
              <mxPoint x="245" y="100" />
            </Array>
          </mxGeometry>
        </mxCell>
        <mxCell id="eYWpQT8jt0v1apSOE-1P-3" value="cin0_2" style="ellipse;whiteSpace=wrap;html=1;" vertex="1" parent="1">
          <mxGeometry x="200" y="-40" width="90" height="60" as="geometry" />
        </mxCell>
        <mxCell id="eYWpQT8jt0v1apSOE-1P-18" style="edgeStyle=orthogonalEdgeStyle;rounded=0;orthogonalLoop=1;jettySize=auto;html=1;entryX=0;entryY=0.5;entryDx=0;entryDy=0;" edge="1" parent="1" source="eYWpQT8jt0v1apSOE-1P-4" target="eYWpQT8jt0v1apSOE-1P-5">
          <mxGeometry relative="1" as="geometry" />
        </mxCell>
        <mxCell id="eYWpQT8jt0v1apSOE-1P-4" value="cin0_3" style="ellipse;whiteSpace=wrap;html=1;" vertex="1" parent="1">
          <mxGeometry x="350" y="-40" width="90" height="60" as="geometry" />
        </mxCell>
        <mxCell id="eYWpQT8jt0v1apSOE-1P-20" style="edgeStyle=orthogonalEdgeStyle;rounded=0;orthogonalLoop=1;jettySize=auto;html=1;entryX=0;entryY=0.5;entryDx=0;entryDy=0;" edge="1" parent="1" source="eYWpQT8jt0v1apSOE-1P-5" target="eYWpQT8jt0v1apSOE-1P-6">
          <mxGeometry relative="1" as="geometry" />
        </mxCell>
        <mxCell id="eYWpQT8jt0v1apSOE-1P-5" value="cin0_4" style="ellipse;whiteSpace=wrap;html=1;" vertex="1" parent="1">
          <mxGeometry x="500" y="-40" width="90" height="60" as="geometry" />
        </mxCell>
        <mxCell id="eYWpQT8jt0v1apSOE-1P-6" value="cin0_5" style="ellipse;whiteSpace=wrap;html=1;" vertex="1" parent="1">
          <mxGeometry x="650" y="-40" width="90" height="60" as="geometry" />
        </mxCell>
        <mxCell id="eYWpQT8jt0v1apSOE-1P-19" style="edgeStyle=orthogonalEdgeStyle;rounded=0;orthogonalLoop=1;jettySize=auto;html=1;entryX=0;entryY=0.5;entryDx=0;entryDy=0;" edge="1" parent="1" source="eYWpQT8jt0v1apSOE-1P-7" target="eYWpQT8jt0v1apSOE-1P-8">
          <mxGeometry relative="1" as="geometry" />
        </mxCell>
        <mxCell id="eYWpQT8jt0v1apSOE-1P-7" value="cin0_6" style="ellipse;whiteSpace=wrap;html=1;" vertex="1" parent="1">
          <mxGeometry x="350" y="70" width="90" height="60" as="geometry" />
        </mxCell>
        <mxCell id="eYWpQT8jt0v1apSOE-1P-21" style="edgeStyle=orthogonalEdgeStyle;rounded=0;orthogonalLoop=1;jettySize=auto;html=1;entryX=0;entryY=0.5;entryDx=0;entryDy=0;" edge="1" parent="1" source="eYWpQT8jt0v1apSOE-1P-8" target="eYWpQT8jt0v1apSOE-1P-9">
          <mxGeometry relative="1" as="geometry" />
        </mxCell>
        <mxCell id="eYWpQT8jt0v1apSOE-1P-8" value="cin0_7" style="ellipse;whiteSpace=wrap;html=1;" vertex="1" parent="1">
          <mxGeometry x="500" y="70" width="90" height="60" as="geometry" />
        </mxCell>
        <mxCell id="eYWpQT8jt0v1apSOE-1P-9" value="cin0_8" style="ellipse;whiteSpace=wrap;html=1;" vertex="1" parent="1">
          <mxGeometry x="650" y="70" width="90" height="60" as="geometry" />
        </mxCell>
        <mxCell id="eYWpQT8jt0v1apSOE-1P-143" style="edgeStyle=orthogonalEdgeStyle;rounded=0;orthogonalLoop=1;jettySize=auto;html=1;entryX=0;entryY=0.5;entryDx=0;entryDy=0;fontSize=10;" edge="1" parent="1" source="eYWpQT8jt0v1apSOE-1P-10" target="eYWpQT8jt0v1apSOE-1P-128">
          <mxGeometry relative="1" as="geometry" />
        </mxCell>
        <mxCell id="eYWpQT8jt0v1apSOE-1P-10" value="case00" style="ellipse;whiteSpace=wrap;html=1;" vertex="1" parent="1">
          <mxGeometry x="930" y="10" width="90" height="60" as="geometry" />
        </mxCell>
        <mxCell id="eYWpQT8jt0v1apSOE-1P-144" style="edgeStyle=orthogonalEdgeStyle;rounded=0;orthogonalLoop=1;jettySize=auto;html=1;entryX=0;entryY=0.5;entryDx=0;entryDy=0;fontSize=10;" edge="1" parent="1" source="eYWpQT8jt0v1apSOE-1P-11" target="eYWpQT8jt0v1apSOE-1P-129">
          <mxGeometry relative="1" as="geometry" />
        </mxCell>
        <mxCell id="eYWpQT8jt0v1apSOE-1P-11" value="case01" style="ellipse;whiteSpace=wrap;html=1;" vertex="1" parent="1">
          <mxGeometry x="930" y="150" width="90" height="60" as="geometry" />
        </mxCell>
        <mxCell id="eYWpQT8jt0v1apSOE-1P-145" style="edgeStyle=orthogonalEdgeStyle;rounded=0;orthogonalLoop=1;jettySize=auto;html=1;entryX=0;entryY=0.5;entryDx=0;entryDy=0;fontSize=10;" edge="1" parent="1" source="eYWpQT8jt0v1apSOE-1P-12" target="eYWpQT8jt0v1apSOE-1P-130">
          <mxGeometry relative="1" as="geometry" />
        </mxCell>
        <mxCell id="eYWpQT8jt0v1apSOE-1P-12" value="case10" style="ellipse;whiteSpace=wrap;html=1;" vertex="1" parent="1">
          <mxGeometry x="930" y="290" width="90" height="60" as="geometry" />
        </mxCell>
        <mxCell id="eYWpQT8jt0v1apSOE-1P-146" style="edgeStyle=orthogonalEdgeStyle;rounded=0;orthogonalLoop=1;jettySize=auto;html=1;entryX=0;entryY=0.5;entryDx=0;entryDy=0;fontSize=10;" edge="1" parent="1" source="eYWpQT8jt0v1apSOE-1P-13" target="eYWpQT8jt0v1apSOE-1P-131">
          <mxGeometry relative="1" as="geometry" />
        </mxCell>
        <mxCell id="eYWpQT8jt0v1apSOE-1P-13" value="case11" style="ellipse;whiteSpace=wrap;html=1;" vertex="1" parent="1">
          <mxGeometry x="930" y="430" width="90" height="60" as="geometry" />
        </mxCell>
        <mxCell id="eYWpQT8jt0v1apSOE-1P-26" value="" style="curved=1;endArrow=classic;html=1;rounded=0;exitX=0.067;exitY=0.3;exitDx=0;exitDy=0;exitPerimeter=0;entryX=0.267;entryY=0;entryDx=0;entryDy=0;entryPerimeter=0;" edge="1" parent="1" source="eYWpQT8jt0v1apSOE-1P-2" target="eYWpQT8jt0v1apSOE-1P-2">
          <mxGeometry width="50" height="50" relative="1" as="geometry">
            <mxPoint x="520" y="210" as="sourcePoint" />
            <mxPoint x="570" y="160" as="targetPoint" />
            <Array as="points">
              <mxPoint x="40" y="-50" />
              <mxPoint x="70" y="-60" />
            </Array>
          </mxGeometry>
        </mxCell>
        <mxCell id="eYWpQT8jt0v1apSOE-1P-31" value="" style="curved=1;endArrow=classic;html=1;rounded=0;exitX=0.067;exitY=0.3;exitDx=0;exitDy=0;exitPerimeter=0;entryX=0.267;entryY=0;entryDx=0;entryDy=0;entryPerimeter=0;" edge="1" parent="1">
          <mxGeometry width="50" height="50" relative="1" as="geometry">
            <mxPoint x="356.03" y="-22" as="sourcePoint" />
            <mxPoint x="374.03" y="-40" as="targetPoint" />
            <Array as="points">
              <mxPoint x="340" y="-50" />
              <mxPoint x="370" y="-60" />
            </Array>
          </mxGeometry>
        </mxCell>
        <mxCell id="eYWpQT8jt0v1apSOE-1P-33" value="" style="curved=1;endArrow=classic;html=1;rounded=0;exitX=0.067;exitY=0.3;exitDx=0;exitDy=0;exitPerimeter=0;entryX=0.267;entryY=0;entryDx=0;entryDy=0;entryPerimeter=0;" edge="1" parent="1">
          <mxGeometry width="50" height="50" relative="1" as="geometry">
            <mxPoint x="504.01999999999975" y="-22" as="sourcePoint" />
            <mxPoint x="522.0199999999998" y="-40" as="targetPoint" />
            <Array as="points">
              <mxPoint x="487.99" y="-50" />
              <mxPoint x="517.99" y="-60" />
            </Array>
          </mxGeometry>
        </mxCell>
        <mxCell id="eYWpQT8jt0v1apSOE-1P-37" value="" style="curved=1;endArrow=classic;html=1;rounded=0;exitX=1;exitY=0.5;exitDx=0;exitDy=0;entryX=0;entryY=0.5;entryDx=0;entryDy=0;" edge="1" parent="1" source="eYWpQT8jt0v1apSOE-1P-6" target="eYWpQT8jt0v1apSOE-1P-11">
          <mxGeometry width="50" height="50" relative="1" as="geometry">
            <mxPoint x="780" y="30" as="sourcePoint" />
            <mxPoint x="1090" y="-60" as="targetPoint" />
            <Array as="points">
              <mxPoint x="770" />
              <mxPoint x="850" y="70" />
            </Array>
          </mxGeometry>
        </mxCell>
        <mxCell id="eYWpQT8jt0v1apSOE-1P-38" value="" style="curved=1;endArrow=classic;html=1;rounded=0;exitX=0.5;exitY=1;exitDx=0;exitDy=0;entryX=0;entryY=0.5;entryDx=0;entryDy=0;" edge="1" parent="1" source="eYWpQT8jt0v1apSOE-1P-6" target="eYWpQT8jt0v1apSOE-1P-12">
          <mxGeometry width="50" height="50" relative="1" as="geometry">
            <mxPoint x="749.99999999999" as="sourcePoint" />
            <mxPoint x="939.99999999999" y="190" as="targetPoint" />
            <Array as="points">
              <mxPoint x="770" y="50" />
            </Array>
          </mxGeometry>
        </mxCell>
        <mxCell id="eYWpQT8jt0v1apSOE-1P-40" value="" style="curved=1;endArrow=classic;html=1;rounded=0;exitX=1;exitY=0.5;exitDx=0;exitDy=0;entryX=0;entryY=0.5;entryDx=0;entryDy=0;" edge="1" parent="1" source="eYWpQT8jt0v1apSOE-1P-9" target="eYWpQT8jt0v1apSOE-1P-10">
          <mxGeometry width="50" height="50" relative="1" as="geometry">
            <mxPoint x="480" y="40" as="sourcePoint" />
            <mxPoint x="530" y="-10" as="targetPoint" />
            <Array as="points">
              <mxPoint x="810" y="90" />
              <mxPoint x="870" y="30" />
            </Array>
          </mxGeometry>
        </mxCell>
        <mxCell id="eYWpQT8jt0v1apSOE-1P-41" value="" style="curved=1;endArrow=classic;html=1;rounded=0;exitX=1;exitY=1;exitDx=0;exitDy=0;" edge="1" parent="1" source="eYWpQT8jt0v1apSOE-1P-9">
          <mxGeometry width="50" height="50" relative="1" as="geometry">
            <mxPoint x="480" y="40" as="sourcePoint" />
            <mxPoint x="950" y="290" as="targetPoint" />
            <Array as="points">
              <mxPoint x="810" y="180" />
              <mxPoint x="900" y="210" />
            </Array>
          </mxGeometry>
        </mxCell>
        <mxCell id="eYWpQT8jt0v1apSOE-1P-42" value="" style="curved=1;endArrow=classic;html=1;rounded=0;exitX=0.067;exitY=0.3;exitDx=0;exitDy=0;exitPerimeter=0;entryX=0.267;entryY=0;entryDx=0;entryDy=0;entryPerimeter=0;" edge="1" parent="1">
          <mxGeometry width="50" height="50" relative="1" as="geometry">
            <mxPoint x="354.01999999999975" y="113" as="sourcePoint" />
            <mxPoint x="372.01999999999975" y="131" as="targetPoint" />
            <Array as="points">
              <mxPoint x="337.99" y="141" />
              <mxPoint x="367.99" y="151" />
            </Array>
          </mxGeometry>
        </mxCell>
        <mxCell id="eYWpQT8jt0v1apSOE-1P-44" value="" style="curved=1;endArrow=classic;html=1;rounded=0;exitX=0.067;exitY=0.3;exitDx=0;exitDy=0;exitPerimeter=0;entryX=0.267;entryY=0;entryDx=0;entryDy=0;entryPerimeter=0;" edge="1" parent="1">
          <mxGeometry width="50" height="50" relative="1" as="geometry">
            <mxPoint x="504.01999999999975" y="114" as="sourcePoint" />
            <mxPoint x="522.0199999999998" y="132" as="targetPoint" />
            <Array as="points">
              <mxPoint x="487.99" y="142" />
              <mxPoint x="517.99" y="152" />
            </Array>
          </mxGeometry>
        </mxCell>
        <mxCell id="eYWpQT8jt0v1apSOE-1P-68" value="&lt;font style=&quot;font-size: 10px&quot;&gt;# -&amp;gt; #, R&lt;/font&gt;" style="text;html=1;strokeColor=none;fillColor=none;align=center;verticalAlign=middle;whiteSpace=wrap;rounded=0;" vertex="1" parent="1">
          <mxGeometry x="-12" y="-36" width="60" height="30" as="geometry" />
        </mxCell>
        <mxCell id="eYWpQT8jt0v1apSOE-1P-69" value="&lt;font style=&quot;font-size: 10px&quot;&gt;1,0 -&amp;gt; 1,0, R&lt;/font&gt;" style="text;html=1;strokeColor=none;fillColor=none;align=center;verticalAlign=middle;whiteSpace=wrap;rounded=0;" vertex="1" parent="1">
          <mxGeometry x="20" y="-80" width="60" height="30" as="geometry" />
        </mxCell>
        <mxCell id="eYWpQT8jt0v1apSOE-1P-70" value="&lt;font style=&quot;font-size: 10px&quot;&gt;#,a,b -&amp;gt; #,a,b, L&lt;br&gt;&lt;/font&gt;" style="text;html=1;strokeColor=none;fillColor=none;align=center;verticalAlign=middle;whiteSpace=wrap;rounded=0;" vertex="1" parent="1">
          <mxGeometry x="132" y="-53" width="80" height="30" as="geometry" />
        </mxCell>
        <mxCell id="eYWpQT8jt0v1apSOE-1P-71" value="a,b -&amp;gt; a,b, R" style="text;html=1;strokeColor=none;fillColor=none;align=center;verticalAlign=middle;whiteSpace=wrap;rounded=0;" vertex="1" parent="1">
          <mxGeometry x="310" y="-83" width="80" height="30" as="geometry" />
        </mxCell>
        <mxCell id="eYWpQT8jt0v1apSOE-1P-72" value="1 -&amp;gt; a, R" style="text;html=1;strokeColor=none;fillColor=none;align=center;verticalAlign=middle;whiteSpace=wrap;rounded=0;" vertex="1" parent="1">
          <mxGeometry x="278" y="-36" width="80" height="30" as="geometry" />
        </mxCell>
        <mxCell id="eYWpQT8jt0v1apSOE-1P-73" value="# -&amp;gt; #, R" style="text;html=1;strokeColor=none;fillColor=none;align=center;verticalAlign=middle;whiteSpace=wrap;rounded=0;" vertex="1" parent="1">
          <mxGeometry x="1006" y="11" width="80" height="30" as="geometry" />
        </mxCell>
        <mxCell id="eYWpQT8jt0v1apSOE-1P-74" value="&lt;font style=&quot;font-size: 10px&quot;&gt;1,0 -&amp;gt; 1,0, R&lt;/font&gt;" style="text;html=1;strokeColor=none;fillColor=none;align=center;verticalAlign=middle;whiteSpace=wrap;rounded=0;" vertex="1" parent="1">
          <mxGeometry x="460" y="-83" width="60" height="30" as="geometry" />
        </mxCell>
        <mxCell id="eYWpQT8jt0v1apSOE-1P-75" value="&lt;font style=&quot;font-size: 10px&quot;&gt;#,a,b -&amp;gt; #,a,b, L&lt;br&gt;&lt;/font&gt;" style="text;html=1;strokeColor=none;fillColor=none;align=center;verticalAlign=middle;whiteSpace=wrap;rounded=0;" vertex="1" parent="1">
          <mxGeometry x="580" y="-50" width="80" height="30" as="geometry" />
        </mxCell>
        <mxCell id="eYWpQT8jt0v1apSOE-1P-76" value="1 -&amp;gt; a, R" style="text;html=1;strokeColor=none;fillColor=none;align=center;verticalAlign=middle;whiteSpace=wrap;rounded=0;" vertex="1" parent="1">
          <mxGeometry x="760" y="-25" width="80" height="30" as="geometry" />
        </mxCell>
        <mxCell id="eYWpQT8jt0v1apSOE-1P-77" value="0 -&amp;gt; b, R" style="text;html=1;strokeColor=none;fillColor=none;align=center;verticalAlign=middle;whiteSpace=wrap;rounded=0;" vertex="1" parent="1">
          <mxGeometry x="850" y="10" width="80" height="30" as="geometry" />
        </mxCell>
        <mxCell id="eYWpQT8jt0v1apSOE-1P-78" value="0,# -&amp;gt; 0,#, R" style="text;html=1;strokeColor=none;fillColor=none;align=center;verticalAlign=middle;whiteSpace=wrap;rounded=0;" vertex="1" parent="1">
          <mxGeometry x="160" y="60" width="80" height="30" as="geometry" />
        </mxCell>
        <mxCell id="eYWpQT8jt0v1apSOE-1P-79" value="a,b -&amp;gt; a,b, R" style="text;html=1;strokeColor=none;fillColor=none;align=center;verticalAlign=middle;whiteSpace=wrap;rounded=0;" vertex="1" parent="1">
          <mxGeometry x="310" y="150" width="80" height="30" as="geometry" />
        </mxCell>
        <mxCell id="eYWpQT8jt0v1apSOE-1P-80" value="# -&amp;gt; #, R" style="text;html=1;strokeColor=none;fillColor=none;align=center;verticalAlign=middle;whiteSpace=wrap;rounded=0;" vertex="1" parent="1">
          <mxGeometry x="430" y="70" width="80" height="30" as="geometry" />
        </mxCell>
        <mxCell id="eYWpQT8jt0v1apSOE-1P-81" value="&lt;font style=&quot;font-size: 10px&quot;&gt;1,0 -&amp;gt; 1,0, R&lt;/font&gt;" style="text;html=1;strokeColor=none;fillColor=none;align=center;verticalAlign=middle;whiteSpace=wrap;rounded=0;" vertex="1" parent="1">
          <mxGeometry x="470" y="147" width="60" height="30" as="geometry" />
        </mxCell>
        <mxCell id="eYWpQT8jt0v1apSOE-1P-83" value="&lt;font style=&quot;font-size: 10px&quot;&gt;#,a,b -&amp;gt; #,a,b, L&lt;br&gt;&lt;/font&gt;" style="text;html=1;strokeColor=none;fillColor=none;align=center;verticalAlign=middle;whiteSpace=wrap;rounded=0;" vertex="1" parent="1">
          <mxGeometry x="580" y="60" width="80" height="30" as="geometry" />
        </mxCell>
        <mxCell id="eYWpQT8jt0v1apSOE-1P-84" value="0 -&amp;gt; b, R" style="text;html=1;strokeColor=none;fillColor=none;align=center;verticalAlign=middle;whiteSpace=wrap;rounded=0;" vertex="1" parent="1">
          <mxGeometry x="730" y="30" width="80" height="30" as="geometry" />
        </mxCell>
        <mxCell id="eYWpQT8jt0v1apSOE-1P-85" value="1 -&amp;gt; a, R" style="text;html=1;strokeColor=none;fillColor=none;align=center;verticalAlign=middle;whiteSpace=wrap;rounded=0;" vertex="1" parent="1">
          <mxGeometry x="720" y="150" width="80" height="30" as="geometry" />
        </mxCell>
        <mxCell id="eYWpQT8jt0v1apSOE-1P-86" style="edgeStyle=orthogonalEdgeStyle;rounded=0;orthogonalLoop=1;jettySize=auto;html=1;entryX=0;entryY=0.5;entryDx=0;entryDy=0;" edge="1" parent="1" source="eYWpQT8jt0v1apSOE-1P-87" target="eYWpQT8jt0v1apSOE-1P-90">
          <mxGeometry relative="1" as="geometry" />
        </mxCell>
        <mxCell id="eYWpQT8jt0v1apSOE-1P-87" value="cin1_1" style="ellipse;whiteSpace=wrap;html=1;" vertex="1" parent="1">
          <mxGeometry x="50" y="270" width="90" height="60" as="geometry" />
        </mxCell>
        <mxCell id="eYWpQT8jt0v1apSOE-1P-88" style="edgeStyle=orthogonalEdgeStyle;rounded=0;orthogonalLoop=1;jettySize=auto;html=1;entryX=0;entryY=0.5;entryDx=0;entryDy=0;" edge="1" parent="1" source="eYWpQT8jt0v1apSOE-1P-90" target="eYWpQT8jt0v1apSOE-1P-92">
          <mxGeometry relative="1" as="geometry" />
        </mxCell>
        <mxCell id="eYWpQT8jt0v1apSOE-1P-89" style="edgeStyle=orthogonalEdgeStyle;rounded=0;orthogonalLoop=1;jettySize=auto;html=1;entryX=0;entryY=0.5;entryDx=0;entryDy=0;" edge="1" parent="1" source="eYWpQT8jt0v1apSOE-1P-90" target="eYWpQT8jt0v1apSOE-1P-97">
          <mxGeometry relative="1" as="geometry">
            <mxPoint x="245" y="420" as="targetPoint" />
            <Array as="points">
              <mxPoint x="245" y="410" />
            </Array>
          </mxGeometry>
        </mxCell>
        <mxCell id="eYWpQT8jt0v1apSOE-1P-90" value="cin1_2" style="ellipse;whiteSpace=wrap;html=1;" vertex="1" parent="1">
          <mxGeometry x="200" y="270" width="90" height="60" as="geometry" />
        </mxCell>
        <mxCell id="eYWpQT8jt0v1apSOE-1P-91" style="edgeStyle=orthogonalEdgeStyle;rounded=0;orthogonalLoop=1;jettySize=auto;html=1;entryX=0;entryY=0.5;entryDx=0;entryDy=0;" edge="1" parent="1" source="eYWpQT8jt0v1apSOE-1P-92" target="eYWpQT8jt0v1apSOE-1P-94">
          <mxGeometry relative="1" as="geometry" />
        </mxCell>
        <mxCell id="eYWpQT8jt0v1apSOE-1P-92" value="cin1_3" style="ellipse;whiteSpace=wrap;html=1;" vertex="1" parent="1">
          <mxGeometry x="350" y="270" width="90" height="60" as="geometry" />
        </mxCell>
        <mxCell id="eYWpQT8jt0v1apSOE-1P-93" style="edgeStyle=orthogonalEdgeStyle;rounded=0;orthogonalLoop=1;jettySize=auto;html=1;entryX=0;entryY=0.5;entryDx=0;entryDy=0;" edge="1" parent="1" source="eYWpQT8jt0v1apSOE-1P-94" target="eYWpQT8jt0v1apSOE-1P-95">
          <mxGeometry relative="1" as="geometry" />
        </mxCell>
        <mxCell id="eYWpQT8jt0v1apSOE-1P-94" value="cin1_4" style="ellipse;whiteSpace=wrap;html=1;" vertex="1" parent="1">
          <mxGeometry x="500" y="270" width="90" height="60" as="geometry" />
        </mxCell>
        <mxCell id="eYWpQT8jt0v1apSOE-1P-95" value="cin1_5" style="ellipse;whiteSpace=wrap;html=1;" vertex="1" parent="1">
          <mxGeometry x="650" y="270" width="90" height="60" as="geometry" />
        </mxCell>
        <mxCell id="eYWpQT8jt0v1apSOE-1P-96" style="edgeStyle=orthogonalEdgeStyle;rounded=0;orthogonalLoop=1;jettySize=auto;html=1;entryX=0;entryY=0.5;entryDx=0;entryDy=0;" edge="1" parent="1" source="eYWpQT8jt0v1apSOE-1P-97" target="eYWpQT8jt0v1apSOE-1P-99">
          <mxGeometry relative="1" as="geometry" />
        </mxCell>
        <mxCell id="eYWpQT8jt0v1apSOE-1P-97" value="cin1_6" style="ellipse;whiteSpace=wrap;html=1;" vertex="1" parent="1">
          <mxGeometry x="350" y="380" width="90" height="60" as="geometry" />
        </mxCell>
        <mxCell id="eYWpQT8jt0v1apSOE-1P-98" style="edgeStyle=orthogonalEdgeStyle;rounded=0;orthogonalLoop=1;jettySize=auto;html=1;entryX=0;entryY=0.5;entryDx=0;entryDy=0;" edge="1" parent="1" source="eYWpQT8jt0v1apSOE-1P-99" target="eYWpQT8jt0v1apSOE-1P-100">
          <mxGeometry relative="1" as="geometry" />
        </mxCell>
        <mxCell id="eYWpQT8jt0v1apSOE-1P-99" value="cin1_7" style="ellipse;whiteSpace=wrap;html=1;" vertex="1" parent="1">
          <mxGeometry x="500" y="380" width="90" height="60" as="geometry" />
        </mxCell>
        <mxCell id="eYWpQT8jt0v1apSOE-1P-100" value="cin1_8" style="ellipse;whiteSpace=wrap;html=1;" vertex="1" parent="1">
          <mxGeometry x="650" y="380" width="90" height="60" as="geometry" />
        </mxCell>
        <mxCell id="eYWpQT8jt0v1apSOE-1P-101" value="" style="curved=1;endArrow=classic;html=1;rounded=0;exitX=0.067;exitY=0.3;exitDx=0;exitDy=0;exitPerimeter=0;entryX=0.267;entryY=0;entryDx=0;entryDy=0;entryPerimeter=0;" edge="1" parent="1" source="eYWpQT8jt0v1apSOE-1P-87" target="eYWpQT8jt0v1apSOE-1P-87">
          <mxGeometry width="50" height="50" relative="1" as="geometry">
            <mxPoint x="520" y="520" as="sourcePoint" />
            <mxPoint x="570" y="470" as="targetPoint" />
            <Array as="points">
              <mxPoint x="40" y="260" />
              <mxPoint x="70" y="250" />
            </Array>
          </mxGeometry>
        </mxCell>
        <mxCell id="eYWpQT8jt0v1apSOE-1P-102" value="" style="curved=1;endArrow=classic;html=1;rounded=0;exitX=0.067;exitY=0.3;exitDx=0;exitDy=0;exitPerimeter=0;entryX=0.267;entryY=0;entryDx=0;entryDy=0;entryPerimeter=0;" edge="1" parent="1">
          <mxGeometry width="50" height="50" relative="1" as="geometry">
            <mxPoint x="356.02999999999975" y="288" as="sourcePoint" />
            <mxPoint x="374.02999999999975" y="270" as="targetPoint" />
            <Array as="points">
              <mxPoint x="340" y="260" />
              <mxPoint x="370" y="250" />
            </Array>
          </mxGeometry>
        </mxCell>
        <mxCell id="eYWpQT8jt0v1apSOE-1P-103" value="" style="curved=1;endArrow=classic;html=1;rounded=0;exitX=0.067;exitY=0.3;exitDx=0;exitDy=0;exitPerimeter=0;entryX=0.267;entryY=0;entryDx=0;entryDy=0;entryPerimeter=0;" edge="1" parent="1">
          <mxGeometry width="50" height="50" relative="1" as="geometry">
            <mxPoint x="504.0199999999995" y="288" as="sourcePoint" />
            <mxPoint x="522.0199999999995" y="270" as="targetPoint" />
            <Array as="points">
              <mxPoint x="487.99" y="260" />
              <mxPoint x="517.99" y="250" />
            </Array>
          </mxGeometry>
        </mxCell>
        <mxCell id="eYWpQT8jt0v1apSOE-1P-104" value="" style="curved=1;endArrow=classic;html=1;rounded=0;exitX=0.067;exitY=0.3;exitDx=0;exitDy=0;exitPerimeter=0;entryX=0.267;entryY=0;entryDx=0;entryDy=0;entryPerimeter=0;" edge="1" parent="1">
          <mxGeometry width="50" height="50" relative="1" as="geometry">
            <mxPoint x="354.0199999999995" y="423" as="sourcePoint" />
            <mxPoint x="372.0199999999995" y="441" as="targetPoint" />
            <Array as="points">
              <mxPoint x="337.99" y="451" />
              <mxPoint x="367.99" y="461" />
            </Array>
          </mxGeometry>
        </mxCell>
        <mxCell id="eYWpQT8jt0v1apSOE-1P-105" value="" style="curved=1;endArrow=classic;html=1;rounded=0;exitX=0.067;exitY=0.3;exitDx=0;exitDy=0;exitPerimeter=0;entryX=0.267;entryY=0;entryDx=0;entryDy=0;entryPerimeter=0;" edge="1" parent="1">
          <mxGeometry width="50" height="50" relative="1" as="geometry">
            <mxPoint x="504.0199999999995" y="424" as="sourcePoint" />
            <mxPoint x="522.0199999999995" y="442" as="targetPoint" />
            <Array as="points">
              <mxPoint x="487.99" y="452" />
              <mxPoint x="517.99" y="462" />
            </Array>
          </mxGeometry>
        </mxCell>
        <mxCell id="eYWpQT8jt0v1apSOE-1P-106" value="&lt;font style=&quot;font-size: 10px&quot;&gt;#,a,b -&amp;gt; #,a,b, L&lt;br&gt;&lt;/font&gt;" style="text;html=1;strokeColor=none;fillColor=none;align=center;verticalAlign=middle;whiteSpace=wrap;rounded=0;" vertex="1" parent="1">
          <mxGeometry x="132" y="257" width="80" height="30" as="geometry" />
        </mxCell>
        <mxCell id="eYWpQT8jt0v1apSOE-1P-107" value="a,b -&amp;gt; a,b, R" style="text;html=1;strokeColor=none;fillColor=none;align=center;verticalAlign=middle;whiteSpace=wrap;rounded=0;" vertex="1" parent="1">
          <mxGeometry x="310" y="227" width="80" height="30" as="geometry" />
        </mxCell>
        <mxCell id="eYWpQT8jt0v1apSOE-1P-108" value="1 -&amp;gt; a, R" style="text;html=1;strokeColor=none;fillColor=none;align=center;verticalAlign=middle;whiteSpace=wrap;rounded=0;" vertex="1" parent="1">
          <mxGeometry x="278" y="274" width="80" height="30" as="geometry" />
        </mxCell>
        <mxCell id="eYWpQT8jt0v1apSOE-1P-109" value="# -&amp;gt; #, R" style="text;html=1;strokeColor=none;fillColor=none;align=center;verticalAlign=middle;whiteSpace=wrap;rounded=0;" vertex="1" parent="1">
          <mxGeometry x="430" y="274" width="80" height="30" as="geometry" />
        </mxCell>
        <mxCell id="eYWpQT8jt0v1apSOE-1P-110" value="&lt;font style=&quot;font-size: 10px&quot;&gt;1,0 -&amp;gt; 1,0, R&lt;/font&gt;" style="text;html=1;strokeColor=none;fillColor=none;align=center;verticalAlign=middle;whiteSpace=wrap;rounded=0;" vertex="1" parent="1">
          <mxGeometry x="460" y="227" width="60" height="30" as="geometry" />
        </mxCell>
        <mxCell id="eYWpQT8jt0v1apSOE-1P-111" value="&lt;font style=&quot;font-size: 10px&quot;&gt;#,a,b -&amp;gt; #,a,b, L&lt;br&gt;&lt;/font&gt;" style="text;html=1;strokeColor=none;fillColor=none;align=center;verticalAlign=middle;whiteSpace=wrap;rounded=0;" vertex="1" parent="1">
          <mxGeometry x="580" y="260" width="80" height="30" as="geometry" />
        </mxCell>
        <mxCell id="eYWpQT8jt0v1apSOE-1P-112" value="0,# -&amp;gt; 0,#, R" style="text;html=1;strokeColor=none;fillColor=none;align=center;verticalAlign=middle;whiteSpace=wrap;rounded=0;" vertex="1" parent="1">
          <mxGeometry x="160" y="370" width="80" height="30" as="geometry" />
        </mxCell>
        <mxCell id="eYWpQT8jt0v1apSOE-1P-113" value="a,b -&amp;gt; a,b, R" style="text;html=1;strokeColor=none;fillColor=none;align=center;verticalAlign=middle;whiteSpace=wrap;rounded=0;" vertex="1" parent="1">
          <mxGeometry x="310" y="460" width="80" height="30" as="geometry" />
        </mxCell>
        <mxCell id="eYWpQT8jt0v1apSOE-1P-114" value="# -&amp;gt; #, R" style="text;html=1;strokeColor=none;fillColor=none;align=center;verticalAlign=middle;whiteSpace=wrap;rounded=0;" vertex="1" parent="1">
          <mxGeometry x="430" y="380" width="80" height="30" as="geometry" />
        </mxCell>
        <mxCell id="eYWpQT8jt0v1apSOE-1P-115" value="&lt;font style=&quot;font-size: 10px&quot;&gt;1,0 -&amp;gt; 1,0, R&lt;/font&gt;" style="text;html=1;strokeColor=none;fillColor=none;align=center;verticalAlign=middle;whiteSpace=wrap;rounded=0;" vertex="1" parent="1">
          <mxGeometry x="470" y="457" width="60" height="30" as="geometry" />
        </mxCell>
        <mxCell id="eYWpQT8jt0v1apSOE-1P-116" value="&lt;font style=&quot;font-size: 10px&quot;&gt;#,a,b -&amp;gt; #,a,b, L&lt;br&gt;&lt;/font&gt;" style="text;html=1;strokeColor=none;fillColor=none;align=center;verticalAlign=middle;whiteSpace=wrap;rounded=0;" vertex="1" parent="1">
          <mxGeometry x="580" y="370" width="80" height="30" as="geometry" />
        </mxCell>
        <mxCell id="eYWpQT8jt0v1apSOE-1P-117" value="" style="curved=1;endArrow=classic;html=1;rounded=0;fontSize=10;entryX=0;entryY=0;entryDx=0;entryDy=0;exitX=1;exitY=0.5;exitDx=0;exitDy=0;" edge="1" parent="1" source="eYWpQT8jt0v1apSOE-1P-95" target="eYWpQT8jt0v1apSOE-1P-13">
          <mxGeometry width="50" height="50" relative="1" as="geometry">
            <mxPoint x="540" y="210" as="sourcePoint" />
            <mxPoint x="590" y="160" as="targetPoint" />
            <Array as="points">
              <mxPoint x="830" y="330" />
              <mxPoint x="900" y="380" />
            </Array>
          </mxGeometry>
        </mxCell>
        <mxCell id="eYWpQT8jt0v1apSOE-1P-118" value="" style="curved=1;endArrow=classic;html=1;rounded=0;fontSize=10;entryX=0;entryY=1;entryDx=0;entryDy=0;exitX=0.963;exitY=0.207;exitDx=0;exitDy=0;exitPerimeter=0;" edge="1" parent="1" source="eYWpQT8jt0v1apSOE-1P-95" target="eYWpQT8jt0v1apSOE-1P-11">
          <mxGeometry width="50" height="50" relative="1" as="geometry">
            <mxPoint x="540" y="210" as="sourcePoint" />
            <mxPoint x="650" y="210" as="targetPoint" />
            <Array as="points">
              <mxPoint x="800" y="280" />
            </Array>
          </mxGeometry>
        </mxCell>
        <mxCell id="eYWpQT8jt0v1apSOE-1P-119" value="" style="curved=1;endArrow=classic;html=1;rounded=0;fontSize=10;entryX=-0.019;entryY=0.698;entryDx=0;entryDy=0;entryPerimeter=0;exitX=1;exitY=0;exitDx=0;exitDy=0;" edge="1" parent="1" source="eYWpQT8jt0v1apSOE-1P-100" target="eYWpQT8jt0v1apSOE-1P-11">
          <mxGeometry width="50" height="50" relative="1" as="geometry">
            <mxPoint x="540" y="210" as="sourcePoint" />
            <mxPoint x="590" y="160" as="targetPoint" />
            <Array as="points">
              <mxPoint x="760" y="390" />
              <mxPoint x="900" y="350" />
            </Array>
          </mxGeometry>
        </mxCell>
        <mxCell id="eYWpQT8jt0v1apSOE-1P-120" value="" style="curved=1;endArrow=classic;html=1;rounded=0;fontSize=10;entryX=0.343;entryY=0.996;entryDx=0;entryDy=0;entryPerimeter=0;exitX=0.963;exitY=0.777;exitDx=0;exitDy=0;exitPerimeter=0;" edge="1" parent="1" source="eYWpQT8jt0v1apSOE-1P-100" target="eYWpQT8jt0v1apSOE-1P-12">
          <mxGeometry width="50" height="50" relative="1" as="geometry">
            <mxPoint x="540" y="210" as="sourcePoint" />
            <mxPoint x="590" y="160" as="targetPoint" />
            <Array as="points">
              <mxPoint x="780" y="440" />
              <mxPoint x="930" y="390" />
            </Array>
          </mxGeometry>
        </mxCell>
        <mxCell id="eYWpQT8jt0v1apSOE-1P-121" value="1 -&amp;gt; a, R" style="text;html=1;strokeColor=none;fillColor=none;align=center;verticalAlign=middle;whiteSpace=wrap;rounded=0;" vertex="1" parent="1">
          <mxGeometry x="790" y="300" width="80" height="30" as="geometry" />
        </mxCell>
        <mxCell id="eYWpQT8jt0v1apSOE-1P-122" value="1 -&amp;gt; a, R" style="text;html=1;strokeColor=none;fillColor=none;align=center;verticalAlign=middle;whiteSpace=wrap;rounded=0;" vertex="1" parent="1">
          <mxGeometry x="720" y="350" width="80" height="30" as="geometry" />
        </mxCell>
        <mxCell id="eYWpQT8jt0v1apSOE-1P-123" value="0 -&amp;gt; b, R" style="text;html=1;strokeColor=none;fillColor=none;align=center;verticalAlign=middle;whiteSpace=wrap;rounded=0;" vertex="1" parent="1">
          <mxGeometry x="750" y="230" width="80" height="30" as="geometry" />
        </mxCell>
        <mxCell id="eYWpQT8jt0v1apSOE-1P-124" value="0 -&amp;gt; b, R" style="text;html=1;strokeColor=none;fillColor=none;align=center;verticalAlign=middle;whiteSpace=wrap;rounded=0;" vertex="1" parent="1">
          <mxGeometry x="770" y="427" width="80" height="30" as="geometry" />
        </mxCell>
        <mxCell id="eYWpQT8jt0v1apSOE-1P-126" value="" style="curved=1;endArrow=classic;html=1;rounded=0;exitX=0.067;exitY=0.3;exitDx=0;exitDy=0;exitPerimeter=0;entryX=0.267;entryY=0;entryDx=0;entryDy=0;entryPerimeter=0;" edge="1" parent="1">
          <mxGeometry width="50" height="50" relative="1" as="geometry">
            <mxPoint x="56.02999999999997" y="287.9999999999999" as="sourcePoint" />
            <mxPoint x="74.0300000000002" y="269.9999999999999" as="targetPoint" />
            <Array as="points">
              <mxPoint x="40" y="260" />
              <mxPoint x="70" y="250" />
            </Array>
          </mxGeometry>
        </mxCell>
        <mxCell id="eYWpQT8jt0v1apSOE-1P-127" value="&lt;font style=&quot;font-size: 10px&quot;&gt;1,0 -&amp;gt; 1,0, R&lt;/font&gt;" style="text;html=1;strokeColor=none;fillColor=none;align=center;verticalAlign=middle;whiteSpace=wrap;rounded=0;" vertex="1" parent="1">
          <mxGeometry x="20" y="230" width="60" height="30" as="geometry" />
        </mxCell>
        <mxCell id="eYWpQT8jt0v1apSOE-1P-161" style="edgeStyle=orthogonalEdgeStyle;rounded=0;orthogonalLoop=1;jettySize=auto;html=1;entryX=0;entryY=0.5;entryDx=0;entryDy=0;fontSize=10;" edge="1" parent="1" source="eYWpQT8jt0v1apSOE-1P-128" target="eYWpQT8jt0v1apSOE-1P-157">
          <mxGeometry relative="1" as="geometry" />
        </mxCell>
        <mxCell id="eYWpQT8jt0v1apSOE-1P-128" value="case00_0" style="ellipse;whiteSpace=wrap;html=1;" vertex="1" parent="1">
          <mxGeometry x="1070" y="10" width="90" height="60" as="geometry" />
        </mxCell>
        <mxCell id="eYWpQT8jt0v1apSOE-1P-162" style="edgeStyle=orthogonalEdgeStyle;rounded=0;orthogonalLoop=1;jettySize=auto;html=1;entryX=0;entryY=0.5;entryDx=0;entryDy=0;fontSize=10;" edge="1" parent="1" source="eYWpQT8jt0v1apSOE-1P-129" target="eYWpQT8jt0v1apSOE-1P-158">
          <mxGeometry relative="1" as="geometry" />
        </mxCell>
        <mxCell id="eYWpQT8jt0v1apSOE-1P-129" value="case01_0" style="ellipse;whiteSpace=wrap;html=1;" vertex="1" parent="1">
          <mxGeometry x="1069.5" y="150" width="90" height="60" as="geometry" />
        </mxCell>
        <mxCell id="eYWpQT8jt0v1apSOE-1P-163" style="edgeStyle=orthogonalEdgeStyle;rounded=0;orthogonalLoop=1;jettySize=auto;html=1;fontSize=10;" edge="1" parent="1" source="eYWpQT8jt0v1apSOE-1P-130" target="eYWpQT8jt0v1apSOE-1P-159">
          <mxGeometry relative="1" as="geometry" />
        </mxCell>
        <mxCell id="eYWpQT8jt0v1apSOE-1P-130" value="case10_0" style="ellipse;whiteSpace=wrap;html=1;" vertex="1" parent="1">
          <mxGeometry x="1070" y="290" width="90" height="60" as="geometry" />
        </mxCell>
        <mxCell id="eYWpQT8jt0v1apSOE-1P-164" style="edgeStyle=orthogonalEdgeStyle;rounded=0;orthogonalLoop=1;jettySize=auto;html=1;entryX=0;entryY=0.5;entryDx=0;entryDy=0;fontSize=10;" edge="1" parent="1" source="eYWpQT8jt0v1apSOE-1P-131" target="eYWpQT8jt0v1apSOE-1P-160">
          <mxGeometry relative="1" as="geometry" />
        </mxCell>
        <mxCell id="eYWpQT8jt0v1apSOE-1P-131" value="case11_0" style="ellipse;whiteSpace=wrap;html=1;" vertex="1" parent="1">
          <mxGeometry x="1070" y="430" width="90" height="60" as="geometry" />
        </mxCell>
        <mxCell id="eYWpQT8jt0v1apSOE-1P-132" value="" style="curved=1;endArrow=classic;html=1;rounded=0;exitX=0.067;exitY=0.3;exitDx=0;exitDy=0;exitPerimeter=0;entryX=0.267;entryY=0;entryDx=0;entryDy=0;entryPerimeter=0;" edge="1" parent="1">
          <mxGeometry width="50" height="50" relative="1" as="geometry">
            <mxPoint x="942.0299999999995" y="20" as="sourcePoint" />
            <mxPoint x="960.0299999999995" y="2" as="targetPoint" />
            <Array as="points">
              <mxPoint x="926" y="-8" />
              <mxPoint x="956" y="-18" />
            </Array>
          </mxGeometry>
        </mxCell>
        <mxCell id="eYWpQT8jt0v1apSOE-1P-135" value="" style="curved=1;endArrow=classic;html=1;rounded=0;exitX=0.067;exitY=0.3;exitDx=0;exitDy=0;exitPerimeter=0;entryX=0.267;entryY=0;entryDx=0;entryDy=0;entryPerimeter=0;" edge="1" parent="1">
          <mxGeometry width="50" height="50" relative="1" as="geometry">
            <mxPoint x="1158.0000000000002" y="168" as="sourcePoint" />
            <mxPoint x="1140.0000000000002" y="150" as="targetPoint" />
            <Array as="points">
              <mxPoint x="1174.0299999999997" y="140" />
              <mxPoint x="1144.0299999999997" y="130" />
            </Array>
          </mxGeometry>
        </mxCell>
        <mxCell id="eYWpQT8jt0v1apSOE-1P-136" value="" style="curved=1;endArrow=classic;html=1;rounded=0;exitX=0.067;exitY=0.3;exitDx=0;exitDy=0;exitPerimeter=0;entryX=0.267;entryY=0;entryDx=0;entryDy=0;entryPerimeter=0;" edge="1" parent="1">
          <mxGeometry width="50" height="50" relative="1" as="geometry">
            <mxPoint x="936.0299999999995" y="165" as="sourcePoint" />
            <mxPoint x="954.0299999999995" y="147" as="targetPoint" />
            <Array as="points">
              <mxPoint x="920" y="137" />
              <mxPoint x="950" y="127" />
            </Array>
          </mxGeometry>
        </mxCell>
        <mxCell id="eYWpQT8jt0v1apSOE-1P-137" value="" style="curved=1;endArrow=classic;html=1;rounded=0;exitX=0.067;exitY=0.3;exitDx=0;exitDy=0;exitPerimeter=0;entryX=0.267;entryY=0;entryDx=0;entryDy=0;entryPerimeter=0;" edge="1" parent="1">
          <mxGeometry width="50" height="50" relative="1" as="geometry">
            <mxPoint x="1147" y="298" as="sourcePoint" />
            <mxPoint x="1129" y="280" as="targetPoint" />
            <Array as="points">
              <mxPoint x="1163.0299999999997" y="270" />
              <mxPoint x="1133.0299999999997" y="260" />
            </Array>
          </mxGeometry>
        </mxCell>
        <mxCell id="eYWpQT8jt0v1apSOE-1P-138" value="" style="curved=1;endArrow=classic;html=1;rounded=0;exitX=0.067;exitY=0.3;exitDx=0;exitDy=0;exitPerimeter=0;entryX=0.267;entryY=0;entryDx=0;entryDy=0;entryPerimeter=0;" edge="1" parent="1">
          <mxGeometry width="50" height="50" relative="1" as="geometry">
            <mxPoint x="1008.0000000000002" y="300" as="sourcePoint" />
            <mxPoint x="990" y="282" as="targetPoint" />
            <Array as="points">
              <mxPoint x="1024.0299999999997" y="272" />
              <mxPoint x="994.0299999999997" y="262" />
            </Array>
          </mxGeometry>
        </mxCell>
        <mxCell id="eYWpQT8jt0v1apSOE-1P-141" value="" style="curved=1;endArrow=classic;html=1;rounded=0;exitX=0.067;exitY=0.3;exitDx=0;exitDy=0;exitPerimeter=0;entryX=0.267;entryY=0;entryDx=0;entryDy=0;entryPerimeter=0;" edge="1" parent="1">
          <mxGeometry width="50" height="50" relative="1" as="geometry">
            <mxPoint x="1147" y="438" as="sourcePoint" />
            <mxPoint x="1129" y="420" as="targetPoint" />
            <Array as="points">
              <mxPoint x="1163.0299999999997" y="410" />
              <mxPoint x="1133.0299999999997" y="400" />
            </Array>
          </mxGeometry>
        </mxCell>
        <mxCell id="eYWpQT8jt0v1apSOE-1P-142" value="" style="curved=1;endArrow=classic;html=1;rounded=0;exitX=0.067;exitY=0.3;exitDx=0;exitDy=0;exitPerimeter=0;entryX=0.267;entryY=0;entryDx=0;entryDy=0;entryPerimeter=0;" edge="1" parent="1">
          <mxGeometry width="50" height="50" relative="1" as="geometry">
            <mxPoint x="1008" y="440" as="sourcePoint" />
            <mxPoint x="990" y="422" as="targetPoint" />
            <Array as="points">
              <mxPoint x="1024.0299999999997" y="412" />
              <mxPoint x="994.0299999999997" y="402" />
            </Array>
          </mxGeometry>
        </mxCell>
        <mxCell id="eYWpQT8jt0v1apSOE-1P-147" value="&lt;font style=&quot;font-size: 10px&quot;&gt;a,b,1,0 -&amp;gt; a,b,1,0, L&lt;br&gt;&lt;/font&gt;" style="text;html=1;strokeColor=none;fillColor=none;align=center;verticalAlign=middle;whiteSpace=wrap;rounded=0;" vertex="1" parent="1">
          <mxGeometry x="890" y="-40" width="120" height="30" as="geometry" />
        </mxCell>
        <mxCell id="eYWpQT8jt0v1apSOE-1P-148" value="&lt;font style=&quot;font-size: 10px&quot;&gt;a,b1,0 -&amp;gt; a,b,1,0, L&lt;br&gt;&lt;/font&gt;" style="text;html=1;strokeColor=none;fillColor=none;align=center;verticalAlign=middle;whiteSpace=wrap;rounded=0;" vertex="1" parent="1">
          <mxGeometry x="900" y="100" width="120" height="30" as="geometry" />
        </mxCell>
        <mxCell id="eYWpQT8jt0v1apSOE-1P-149" value="&lt;font style=&quot;font-size: 10px&quot;&gt;a,b1,0 -&amp;gt; a,b,1,0, L&lt;br&gt;&lt;/font&gt;" style="text;html=1;strokeColor=none;fillColor=none;align=center;verticalAlign=middle;whiteSpace=wrap;rounded=0;" vertex="1" parent="1">
          <mxGeometry x="940" y="240" width="120" height="30" as="geometry" />
        </mxCell>
        <mxCell id="eYWpQT8jt0v1apSOE-1P-150" value="&lt;font style=&quot;font-size: 10px&quot;&gt;a,b1,0 -&amp;gt; a,b,1,0, L&lt;br&gt;&lt;/font&gt;" style="text;html=1;strokeColor=none;fillColor=none;align=center;verticalAlign=middle;whiteSpace=wrap;rounded=0;" vertex="1" parent="1">
          <mxGeometry x="940" y="380" width="120" height="30" as="geometry" />
        </mxCell>
        <mxCell id="eYWpQT8jt0v1apSOE-1P-152" value="# -&amp;gt; #, R" style="text;html=1;strokeColor=none;fillColor=none;align=center;verticalAlign=middle;whiteSpace=wrap;rounded=0;" vertex="1" parent="1">
          <mxGeometry x="430" y="-36" width="80" height="30" as="geometry" />
        </mxCell>
        <mxCell id="eYWpQT8jt0v1apSOE-1P-153" value="" style="curved=1;endArrow=classic;html=1;rounded=0;exitX=0.067;exitY=0.3;exitDx=0;exitDy=0;exitPerimeter=0;entryX=0.267;entryY=0;entryDx=0;entryDy=0;entryPerimeter=0;" edge="1" parent="1">
          <mxGeometry width="50" height="50" relative="1" as="geometry">
            <mxPoint x="1158.0000000000005" y="30" as="sourcePoint" />
            <mxPoint x="1140" y="12" as="targetPoint" />
            <Array as="points">
              <mxPoint x="1174.0299999999997" y="2" />
              <mxPoint x="1144.0299999999997" y="-8" />
            </Array>
          </mxGeometry>
        </mxCell>
        <mxCell id="eYWpQT8jt0v1apSOE-1P-154" value="# -&amp;gt; #, R" style="text;html=1;strokeColor=none;fillColor=none;align=center;verticalAlign=middle;whiteSpace=wrap;rounded=0;" vertex="1" parent="1">
          <mxGeometry x="1006" y="151" width="80" height="30" as="geometry" />
        </mxCell>
        <mxCell id="eYWpQT8jt0v1apSOE-1P-155" value="# -&amp;gt; #, R" style="text;html=1;strokeColor=none;fillColor=none;align=center;verticalAlign=middle;whiteSpace=wrap;rounded=0;" vertex="1" parent="1">
          <mxGeometry x="1006" y="291" width="80" height="30" as="geometry" />
        </mxCell>
        <mxCell id="eYWpQT8jt0v1apSOE-1P-156" value="# -&amp;gt; #, R" style="text;html=1;strokeColor=none;fillColor=none;align=center;verticalAlign=middle;whiteSpace=wrap;rounded=0;" vertex="1" parent="1">
          <mxGeometry x="1005" y="432" width="80" height="30" as="geometry" />
        </mxCell>
        <mxCell id="eYWpQT8jt0v1apSOE-1P-157" value="case00_inter" style="ellipse;whiteSpace=wrap;html=1;" vertex="1" parent="1">
          <mxGeometry x="1240" y="10" width="90" height="60" as="geometry" />
        </mxCell>
        <mxCell id="eYWpQT8jt0v1apSOE-1P-158" value="case01_inter" style="ellipse;whiteSpace=wrap;html=1;" vertex="1" parent="1">
          <mxGeometry x="1240" y="150" width="90" height="60" as="geometry" />
        </mxCell>
        <mxCell id="eYWpQT8jt0v1apSOE-1P-159" value="case10_inter" style="ellipse;whiteSpace=wrap;html=1;" vertex="1" parent="1">
          <mxGeometry x="1240" y="290" width="90" height="60" as="geometry" />
        </mxCell>
        <mxCell id="eYWpQT8jt0v1apSOE-1P-160" value="case11_inter" style="ellipse;whiteSpace=wrap;html=1;" vertex="1" parent="1">
          <mxGeometry x="1240" y="430" width="90" height="60" as="geometry" />
        </mxCell>
        <mxCell id="eYWpQT8jt0v1apSOE-1P-165" value="&lt;font style=&quot;font-size: 10px&quot;&gt;1,0 -&amp;gt; 1,0, R&lt;/font&gt;" style="text;html=1;strokeColor=none;fillColor=none;align=center;verticalAlign=middle;whiteSpace=wrap;rounded=0;" vertex="1" parent="1">
          <mxGeometry x="1140" y="-40" width="60" height="30" as="geometry" />
        </mxCell>
        <mxCell id="eYWpQT8jt0v1apSOE-1P-167" value="&lt;font style=&quot;font-size: 10px&quot;&gt;1,0 -&amp;gt; 1,0, R&lt;/font&gt;" style="text;html=1;strokeColor=none;fillColor=none;align=center;verticalAlign=middle;whiteSpace=wrap;rounded=0;" vertex="1" parent="1">
          <mxGeometry x="1140" y="100" width="60" height="30" as="geometry" />
        </mxCell>
        <mxCell id="eYWpQT8jt0v1apSOE-1P-168" value="&lt;font style=&quot;font-size: 10px&quot;&gt;1,0 -&amp;gt; 1,0, R&lt;/font&gt;" style="text;html=1;strokeColor=none;fillColor=none;align=center;verticalAlign=middle;whiteSpace=wrap;rounded=0;" vertex="1" parent="1">
          <mxGeometry x="1140" y="230" width="60" height="30" as="geometry" />
        </mxCell>
        <mxCell id="eYWpQT8jt0v1apSOE-1P-169" value="&lt;font style=&quot;font-size: 10px&quot;&gt;1,0 -&amp;gt; 1,0, R&lt;/font&gt;" style="text;html=1;strokeColor=none;fillColor=none;align=center;verticalAlign=middle;whiteSpace=wrap;rounded=0;" vertex="1" parent="1">
          <mxGeometry x="1140" y="370" width="60" height="30" as="geometry" />
        </mxCell>
        <mxCell id="eYWpQT8jt0v1apSOE-1P-170" value="#.\0 -&amp;gt; 0,0, R" style="text;html=1;strokeColor=none;fillColor=none;align=center;verticalAlign=middle;whiteSpace=wrap;rounded=0;" vertex="1" parent="1">
          <mxGeometry x="1159.5" y="11" width="80" height="30" as="geometry" />
        </mxCell>
        <mxCell id="eYWpQT8jt0v1apSOE-1P-171" value="#.\0 -&amp;gt; 1,1, R" style="text;html=1;strokeColor=none;fillColor=none;align=center;verticalAlign=middle;whiteSpace=wrap;rounded=0;" vertex="1" parent="1">
          <mxGeometry x="1160" y="285" width="80" height="30" as="geometry" />
        </mxCell>
        <mxCell id="eYWpQT8jt0v1apSOE-1P-173" value="#.\0 -&amp;gt; 0,0, R" style="text;html=1;strokeColor=none;fillColor=none;align=center;verticalAlign=middle;whiteSpace=wrap;rounded=0;" vertex="1" parent="1">
          <mxGeometry x="1159.5" y="151" width="80" height="30" as="geometry" />
        </mxCell>
        <mxCell id="eYWpQT8jt0v1apSOE-1P-175" value="#.\0 -&amp;gt; 1,1, R" style="text;html=1;strokeColor=none;fillColor=none;align=center;verticalAlign=middle;whiteSpace=wrap;rounded=0;" vertex="1" parent="1">
          <mxGeometry x="1159.5" y="427" width="80" height="30" as="geometry" />
        </mxCell>
        <mxCell id="eYWpQT8jt0v1apSOE-1P-191" style="edgeStyle=orthogonalEdgeStyle;rounded=0;orthogonalLoop=1;jettySize=auto;html=1;entryX=1;entryY=0.5;entryDx=0;entryDy=0;fontSize=10;" edge="1" parent="1" source="eYWpQT8jt0v1apSOE-1P-176" target="eYWpQT8jt0v1apSOE-1P-190">
          <mxGeometry relative="1" as="geometry" />
        </mxCell>
        <mxCell id="eYWpQT8jt0v1apSOE-1P-176" value="cin0_back" style="ellipse;whiteSpace=wrap;html=1;" vertex="1" parent="1">
          <mxGeometry x="1069.5" y="-200" width="90" height="60" as="geometry" />
        </mxCell>
        <mxCell id="eYWpQT8jt0v1apSOE-1P-195" style="edgeStyle=orthogonalEdgeStyle;rounded=0;orthogonalLoop=1;jettySize=auto;html=1;entryX=1;entryY=0.5;entryDx=0;entryDy=0;fontSize=10;" edge="1" parent="1" source="eYWpQT8jt0v1apSOE-1P-177" target="eYWpQT8jt0v1apSOE-1P-194">
          <mxGeometry relative="1" as="geometry" />
        </mxCell>
        <mxCell id="eYWpQT8jt0v1apSOE-1P-177" value="cin1_back" style="ellipse;whiteSpace=wrap;html=1;" vertex="1" parent="1">
          <mxGeometry x="1070" y="610" width="90" height="60" as="geometry" />
        </mxCell>
        <mxCell id="eYWpQT8jt0v1apSOE-1P-178" value="" style="curved=1;endArrow=classic;html=1;rounded=0;fontSize=10;entryX=1;entryY=0.5;entryDx=0;entryDy=0;exitX=1;exitY=0.5;exitDx=0;exitDy=0;" edge="1" parent="1" source="eYWpQT8jt0v1apSOE-1P-158" target="eYWpQT8jt0v1apSOE-1P-177">
          <mxGeometry width="50" height="50" relative="1" as="geometry">
            <mxPoint x="700" y="390" as="sourcePoint" />
            <mxPoint x="750" y="340" as="targetPoint" />
            <Array as="points">
              <mxPoint x="1510" y="290" />
              <mxPoint x="1450" y="550" />
            </Array>
          </mxGeometry>
        </mxCell>
        <mxCell id="eYWpQT8jt0v1apSOE-1P-179" value="" style="curved=1;endArrow=classic;html=1;rounded=0;fontSize=10;entryX=0.5;entryY=0;entryDx=0;entryDy=0;exitX=0.5;exitY=1;exitDx=0;exitDy=0;" edge="1" parent="1" source="eYWpQT8jt0v1apSOE-1P-160" target="eYWpQT8jt0v1apSOE-1P-177">
          <mxGeometry width="50" height="50" relative="1" as="geometry">
            <mxPoint x="700" y="390" as="sourcePoint" />
            <mxPoint x="750" y="340" as="targetPoint" />
            <Array as="points">
              <mxPoint x="1280" y="510" />
              <mxPoint x="1230" y="580" />
            </Array>
          </mxGeometry>
        </mxCell>
        <mxCell id="eYWpQT8jt0v1apSOE-1P-180" value="? -&amp;gt; #, L" style="text;html=1;strokeColor=none;fillColor=none;align=center;verticalAlign=middle;whiteSpace=wrap;rounded=0;" vertex="1" parent="1">
          <mxGeometry x="1150" y="540" width="80" height="30" as="geometry" />
        </mxCell>
        <mxCell id="eYWpQT8jt0v1apSOE-1P-181" value="? -&amp;gt; #, L" style="text;html=1;strokeColor=none;fillColor=none;align=center;verticalAlign=middle;whiteSpace=wrap;rounded=0;" vertex="1" parent="1">
          <mxGeometry x="1450" y="510" width="80" height="30" as="geometry" />
        </mxCell>
        <mxCell id="eYWpQT8jt0v1apSOE-1P-183" value="" style="curved=1;endArrow=classic;html=1;rounded=0;fontSize=10;exitX=0.5;exitY=0;exitDx=0;exitDy=0;" edge="1" parent="1" source="eYWpQT8jt0v1apSOE-1P-157">
          <mxGeometry width="50" height="50" relative="1" as="geometry">
            <mxPoint x="390" y="130" as="sourcePoint" />
            <mxPoint x="1160" y="-160" as="targetPoint" />
            <Array as="points">
              <mxPoint x="1330" y="-160" />
            </Array>
          </mxGeometry>
        </mxCell>
        <mxCell id="eYWpQT8jt0v1apSOE-1P-184" value="" style="curved=1;endArrow=classic;html=1;rounded=0;fontSize=10;exitX=1;exitY=0.5;exitDx=0;exitDy=0;entryX=1;entryY=0;entryDx=0;entryDy=0;" edge="1" parent="1" source="eYWpQT8jt0v1apSOE-1P-159" target="eYWpQT8jt0v1apSOE-1P-176">
          <mxGeometry width="50" height="50" relative="1" as="geometry">
            <mxPoint x="390" y="130" as="sourcePoint" />
            <mxPoint x="440" y="80" as="targetPoint" />
            <Array as="points">
              <mxPoint x="1570" y="90" />
              <mxPoint x="1510" y="-190" />
            </Array>
          </mxGeometry>
        </mxCell>
        <mxCell id="eYWpQT8jt0v1apSOE-1P-185" value="? -&amp;gt; #, L" style="text;html=1;strokeColor=none;fillColor=none;align=center;verticalAlign=middle;whiteSpace=wrap;rounded=0;" vertex="1" parent="1">
          <mxGeometry x="1420" y="-200" width="80" height="30" as="geometry" />
        </mxCell>
        <mxCell id="eYWpQT8jt0v1apSOE-1P-186" value="? -&amp;gt; #, L" style="text;html=1;strokeColor=none;fillColor=none;align=center;verticalAlign=middle;whiteSpace=wrap;rounded=0;" vertex="1" parent="1">
          <mxGeometry x="1300" y="-100" width="80" height="30" as="geometry" />
        </mxCell>
        <mxCell id="eYWpQT8jt0v1apSOE-1P-187" value="&lt;font style=&quot;font-size: 10px&quot;&gt;a,b1,0,# -&amp;gt; a,b,1,0,#, L&lt;br&gt;&lt;/font&gt;" style="text;html=1;strokeColor=none;fillColor=none;align=center;verticalAlign=middle;whiteSpace=wrap;rounded=0;" vertex="1" parent="1">
          <mxGeometry x="350" y="-250" width="120" height="30" as="geometry" />
        </mxCell>
        <mxCell id="eYWpQT8jt0v1apSOE-1P-189" value="" style="curved=1;endArrow=classic;html=1;rounded=0;exitX=0.067;exitY=0.3;exitDx=0;exitDy=0;exitPerimeter=0;entryX=0.267;entryY=0;entryDx=0;entryDy=0;entryPerimeter=0;" edge="1" parent="1">
          <mxGeometry width="50" height="50" relative="1" as="geometry">
            <mxPoint x="1085.5299999999997" y="-192" as="sourcePoint" />
            <mxPoint x="1103.5299999999997" y="-210" as="targetPoint" />
            <Array as="points">
              <mxPoint x="1069.5" y="-220" />
              <mxPoint x="1099.5" y="-230" />
            </Array>
          </mxGeometry>
        </mxCell>
        <mxCell id="eYWpQT8jt0v1apSOE-1P-201" style="edgeStyle=orthogonalEdgeStyle;rounded=0;orthogonalLoop=1;jettySize=auto;html=1;entryX=1;entryY=0.5;entryDx=0;entryDy=0;fontSize=10;" edge="1" parent="1" source="eYWpQT8jt0v1apSOE-1P-190" target="eYWpQT8jt0v1apSOE-1P-200">
          <mxGeometry relative="1" as="geometry" />
        </mxCell>
        <mxCell id="eYWpQT8jt0v1apSOE-1P-190" value="cin0_back_inter" style="ellipse;whiteSpace=wrap;html=1;" vertex="1" parent="1">
          <mxGeometry x="820" y="-200" width="90" height="60" as="geometry" />
        </mxCell>
        <mxCell id="eYWpQT8jt0v1apSOE-1P-192" value="" style="curved=1;endArrow=classic;html=1;rounded=0;exitX=0.067;exitY=0.3;exitDx=0;exitDy=0;exitPerimeter=0;entryX=0.267;entryY=0;entryDx=0;entryDy=0;entryPerimeter=0;" edge="1" parent="1">
          <mxGeometry width="50" height="50" relative="1" as="geometry">
            <mxPoint x="1158" y="650" as="sourcePoint" />
            <mxPoint x="1139.9999999999995" y="668" as="targetPoint" />
            <Array as="points">
              <mxPoint x="1174.0299999999997" y="678" />
              <mxPoint x="1144.0299999999997" y="688" />
            </Array>
          </mxGeometry>
        </mxCell>
        <mxCell id="eYWpQT8jt0v1apSOE-1P-193" value="&lt;font style=&quot;font-size: 10px&quot;&gt;a,b1,0,# -&amp;gt; a,b,1,0,#, L&lt;br&gt;&lt;/font&gt;" style="text;html=1;strokeColor=none;fillColor=none;align=center;verticalAlign=middle;whiteSpace=wrap;rounded=0;" vertex="1" parent="1">
          <mxGeometry x="1110" y="690" width="120" height="30" as="geometry" />
        </mxCell>
        <mxCell id="eYWpQT8jt0v1apSOE-1P-194" value="cin1_back_inter" style="ellipse;whiteSpace=wrap;html=1;" vertex="1" parent="1">
          <mxGeometry x="830" y="610" width="90" height="60" as="geometry" />
        </mxCell>
        <mxCell id="eYWpQT8jt0v1apSOE-1P-196" value="\0 -&amp;gt; \0, R" style="text;html=1;strokeColor=none;fillColor=none;align=center;verticalAlign=middle;whiteSpace=wrap;rounded=0;" vertex="1" parent="1">
          <mxGeometry x="960" y="610" width="80" height="30" as="geometry" />
        </mxCell>
        <mxCell id="eYWpQT8jt0v1apSOE-1P-197" value="\0 -&amp;gt; \0, R" style="text;html=1;strokeColor=none;fillColor=none;align=center;verticalAlign=middle;whiteSpace=wrap;rounded=0;" vertex="1" parent="1">
          <mxGeometry x="950" y="-200" width="80" height="30" as="geometry" />
        </mxCell>
        <mxCell id="eYWpQT8jt0v1apSOE-1P-198" value="" style="curved=1;endArrow=classic;html=1;rounded=0;fontSize=10;exitX=0;exitY=0.5;exitDx=0;exitDy=0;" edge="1" parent="1" source="eYWpQT8jt0v1apSOE-1P-194" target="eYWpQT8jt0v1apSOE-1P-87">
          <mxGeometry width="50" height="50" relative="1" as="geometry">
            <mxPoint x="490" y="460" as="sourcePoint" />
            <mxPoint x="540" y="410" as="targetPoint" />
            <Array as="points">
              <mxPoint x="210" y="620" />
              <mxPoint x="20" y="440" />
            </Array>
          </mxGeometry>
        </mxCell>
        <mxCell id="eYWpQT8jt0v1apSOE-1P-199" value="# -&amp;gt; #, R" style="text;html=1;strokeColor=none;fillColor=none;align=center;verticalAlign=middle;whiteSpace=wrap;rounded=0;fontSize=10;" vertex="1" parent="1">
          <mxGeometry x="190" y="590" width="60" height="30" as="geometry" />
        </mxCell>
        <mxCell id="eYWpQT8jt0v1apSOE-1P-207" style="edgeStyle=orthogonalEdgeStyle;rounded=0;orthogonalLoop=1;jettySize=auto;html=1;fontSize=10;" edge="1" parent="1" source="eYWpQT8jt0v1apSOE-1P-200">
          <mxGeometry relative="1" as="geometry">
            <mxPoint x="520" y="-170" as="targetPoint" />
          </mxGeometry>
        </mxCell>
        <mxCell id="eYWpQT8jt0v1apSOE-1P-212" style="edgeStyle=orthogonalEdgeStyle;rounded=0;orthogonalLoop=1;jettySize=auto;html=1;entryX=0.5;entryY=1;entryDx=0;entryDy=0;fontSize=10;" edge="1" parent="1" source="eYWpQT8jt0v1apSOE-1P-200" target="eYWpQT8jt0v1apSOE-1P-211">
          <mxGeometry relative="1" as="geometry" />
        </mxCell>
        <mxCell id="eYWpQT8jt0v1apSOE-1P-200" value="checkfornum_no0_0" style="ellipse;whiteSpace=wrap;html=1;" vertex="1" parent="1">
          <mxGeometry x="610" y="-200" width="130" height="60" as="geometry" />
        </mxCell>
        <mxCell id="eYWpQT8jt0v1apSOE-1P-202" value="# -&amp;gt; #, R" style="text;html=1;strokeColor=none;fillColor=none;align=center;verticalAlign=middle;whiteSpace=wrap;rounded=0;fontSize=10;" vertex="1" parent="1">
          <mxGeometry x="750" y="-200" width="60" height="30" as="geometry" />
        </mxCell>
        <mxCell id="eYWpQT8jt0v1apSOE-1P-203" value="a,b -&amp;gt; a,b, R" style="text;html=1;strokeColor=none;fillColor=none;align=center;verticalAlign=middle;whiteSpace=wrap;rounded=0;" vertex="1" parent="1">
          <mxGeometry x="580" y="-250" width="80" height="30" as="geometry" />
        </mxCell>
        <mxCell id="eYWpQT8jt0v1apSOE-1P-204" value="" style="curved=1;endArrow=classic;html=1;rounded=0;exitX=0.067;exitY=0.3;exitDx=0;exitDy=0;exitPerimeter=0;entryX=0.267;entryY=0;entryDx=0;entryDy=0;entryPerimeter=0;" edge="1" parent="1">
          <mxGeometry width="50" height="50" relative="1" as="geometry">
            <mxPoint x="627.0299999999995" y="-191" as="sourcePoint" />
            <mxPoint x="645.0299999999995" y="-208.9999999999999" as="targetPoint" />
            <Array as="points">
              <mxPoint x="611" y="-219" />
              <mxPoint x="641" y="-229" />
            </Array>
          </mxGeometry>
        </mxCell>
        <mxCell id="eYWpQT8jt0v1apSOE-1P-208" style="edgeStyle=orthogonalEdgeStyle;rounded=0;orthogonalLoop=1;jettySize=auto;html=1;entryX=1;entryY=0.5;entryDx=0;entryDy=0;fontSize=10;" edge="1" parent="1" source="eYWpQT8jt0v1apSOE-1P-205" target="eYWpQT8jt0v1apSOE-1P-206">
          <mxGeometry relative="1" as="geometry" />
        </mxCell>
        <mxCell id="eYWpQT8jt0v1apSOE-1P-205" value="cin0_back_2" style="ellipse;whiteSpace=wrap;html=1;" vertex="1" parent="1">
          <mxGeometry x="429.75" y="-200" width="90" height="60" as="geometry" />
        </mxCell>
        <mxCell id="eYWpQT8jt0v1apSOE-1P-206" value="cin0_back_inter_2" style="ellipse;whiteSpace=wrap;html=1;" vertex="1" parent="1">
          <mxGeometry x="180.25" y="-200" width="119.75" height="60" as="geometry" />
        </mxCell>
        <mxCell id="eYWpQT8jt0v1apSOE-1P-209" value="" style="curved=1;endArrow=classic;html=1;rounded=0;fontSize=10;exitX=0;exitY=0.5;exitDx=0;exitDy=0;entryX=0.648;entryY=0.022;entryDx=0;entryDy=0;entryPerimeter=0;" edge="1" parent="1" source="eYWpQT8jt0v1apSOE-1P-206" target="eYWpQT8jt0v1apSOE-1P-2">
          <mxGeometry width="50" height="50" relative="1" as="geometry">
            <mxPoint x="1060" y="-50" as="sourcePoint" />
            <mxPoint x="1110" y="-100" as="targetPoint" />
            <Array as="points">
              <mxPoint x="110" y="-170" />
            </Array>
          </mxGeometry>
        </mxCell>
        <mxCell id="eYWpQT8jt0v1apSOE-1P-210" value="&lt;font style=&quot;font-size: 10px&quot;&gt;1,0 -&amp;gt; 1,0, L&lt;br&gt;&lt;/font&gt;" style="text;html=1;strokeColor=none;fillColor=none;align=center;verticalAlign=middle;whiteSpace=wrap;rounded=0;" vertex="1" parent="1">
          <mxGeometry x="444.75" y="-380" width="60" height="30" as="geometry" />
        </mxCell>
        <mxCell id="eYWpQT8jt0v1apSOE-1P-220" style="edgeStyle=orthogonalEdgeStyle;rounded=0;orthogonalLoop=1;jettySize=auto;html=1;entryX=0;entryY=0.5;entryDx=0;entryDy=0;fontSize=10;" edge="1" parent="1" source="eYWpQT8jt0v1apSOE-1P-211" target="eYWpQT8jt0v1apSOE-1P-219">
          <mxGeometry relative="1" as="geometry" />
        </mxCell>
        <mxCell id="eYWpQT8jt0v1apSOE-1P-211" value="checkfornum_no0_1" style="ellipse;whiteSpace=wrap;html=1;" vertex="1" parent="1">
          <mxGeometry x="610" y="-380" width="130" height="60" as="geometry" />
        </mxCell>
        <mxCell id="eYWpQT8jt0v1apSOE-1P-213" value="# -&amp;gt; #, R" style="text;html=1;strokeColor=none;fillColor=none;align=center;verticalAlign=middle;whiteSpace=wrap;rounded=0;fontSize=10;" vertex="1" parent="1">
          <mxGeometry x="680" y="-270" width="60" height="30" as="geometry" />
        </mxCell>
        <mxCell id="eYWpQT8jt0v1apSOE-1P-215" value="" style="curved=1;endArrow=classic;html=1;rounded=0;fontSize=10;exitX=0;exitY=0.5;exitDx=0;exitDy=0;entryX=0.5;entryY=0;entryDx=0;entryDy=0;" edge="1" parent="1" source="eYWpQT8jt0v1apSOE-1P-211" target="eYWpQT8jt0v1apSOE-1P-205">
          <mxGeometry width="50" height="50" relative="1" as="geometry">
            <mxPoint x="780" y="-130" as="sourcePoint" />
            <mxPoint x="830" y="-180" as="targetPoint" />
            <Array as="points">
              <mxPoint x="440" y="-360" />
              <mxPoint x="480" y="-240" />
            </Array>
          </mxGeometry>
        </mxCell>
        <mxCell id="eYWpQT8jt0v1apSOE-1P-216" value="&lt;font style=&quot;font-size: 10px&quot;&gt;1,0 -&amp;gt; 1,0, L&lt;br&gt;&lt;/font&gt;" style="text;html=1;strokeColor=none;fillColor=none;align=center;verticalAlign=middle;whiteSpace=wrap;rounded=0;" vertex="1" parent="1">
          <mxGeometry x="550" y="-190" width="60" height="30" as="geometry" />
        </mxCell>
        <mxCell id="eYWpQT8jt0v1apSOE-1P-217" value="a,b -&amp;gt; a,b, R" style="text;html=1;strokeColor=none;fillColor=none;align=center;verticalAlign=middle;whiteSpace=wrap;rounded=0;" vertex="1" parent="1">
          <mxGeometry x="575" y="-425" width="80" height="30" as="geometry" />
        </mxCell>
        <mxCell id="eYWpQT8jt0v1apSOE-1P-218" value="" style="curved=1;endArrow=classic;html=1;rounded=0;exitX=0.067;exitY=0.3;exitDx=0;exitDy=0;exitPerimeter=0;entryX=0.267;entryY=0;entryDx=0;entryDy=0;entryPerimeter=0;" edge="1" parent="1">
          <mxGeometry width="50" height="50" relative="1" as="geometry">
            <mxPoint x="622.0299999999997" y="-366" as="sourcePoint" />
            <mxPoint x="640.0299999999997" y="-383.9999999999999" as="targetPoint" />
            <Array as="points">
              <mxPoint x="606" y="-394" />
              <mxPoint x="636" y="-404" />
            </Array>
          </mxGeometry>
        </mxCell>
        <mxCell id="eYWpQT8jt0v1apSOE-1P-231" style="edgeStyle=orthogonalEdgeStyle;rounded=0;orthogonalLoop=1;jettySize=auto;html=1;entryX=0;entryY=0.5;entryDx=0;entryDy=0;fontSize=17;" edge="1" parent="1" source="eYWpQT8jt0v1apSOE-1P-219" target="eYWpQT8jt0v1apSOE-1P-230">
          <mxGeometry relative="1" as="geometry" />
        </mxCell>
        <mxCell id="eYWpQT8jt0v1apSOE-1P-219" value="move_0" style="ellipse;whiteSpace=wrap;html=1;" vertex="1" parent="1">
          <mxGeometry x="810" y="-380" width="90" height="60" as="geometry" />
        </mxCell>
        <mxCell id="eYWpQT8jt0v1apSOE-1P-221" value="# -&amp;gt; #, R" style="text;html=1;strokeColor=none;fillColor=none;align=center;verticalAlign=middle;whiteSpace=wrap;rounded=0;fontSize=10;" vertex="1" parent="1">
          <mxGeometry x="745" y="-380" width="60" height="30" as="geometry" />
        </mxCell>
        <mxCell id="eYWpQT8jt0v1apSOE-1P-222" value="&lt;font style=&quot;font-size: 10px&quot;&gt;a,b1,0,# -&amp;gt; a,b,1,0,#, L&lt;br&gt;&lt;/font&gt;" style="text;html=1;strokeColor=none;fillColor=none;align=center;verticalAlign=middle;whiteSpace=wrap;rounded=0;" vertex="1" parent="1">
          <mxGeometry x="1030" y="-250" width="120" height="30" as="geometry" />
        </mxCell>
        <mxCell id="eYWpQT8jt0v1apSOE-1P-223" value="" style="curved=1;endArrow=classic;html=1;rounded=0;exitX=0.067;exitY=0.3;exitDx=0;exitDy=0;exitPerimeter=0;entryX=0.267;entryY=0;entryDx=0;entryDy=0;entryPerimeter=0;" edge="1" parent="1">
          <mxGeometry width="50" height="50" relative="1" as="geometry">
            <mxPoint x="435.02999999999975" y="-183" as="sourcePoint" />
            <mxPoint x="453.02999999999975" y="-201" as="targetPoint" />
            <Array as="points">
              <mxPoint x="419" y="-211" />
              <mxPoint x="449" y="-221" />
            </Array>
          </mxGeometry>
        </mxCell>
        <mxCell id="eYWpQT8jt0v1apSOE-1P-224" value="\0 -&amp;gt; \0, R" style="text;html=1;strokeColor=none;fillColor=none;align=center;verticalAlign=middle;whiteSpace=wrap;rounded=0;" vertex="1" parent="1">
          <mxGeometry x="330" y="-200" width="80" height="30" as="geometry" />
        </mxCell>
        <mxCell id="eYWpQT8jt0v1apSOE-1P-225" value="# -&amp;gt; #, R" style="text;html=1;strokeColor=none;fillColor=none;align=center;verticalAlign=middle;whiteSpace=wrap;rounded=0;fontSize=10;" vertex="1" parent="1">
          <mxGeometry x="65" y="-170" width="60" height="30" as="geometry" />
        </mxCell>
        <mxCell id="eYWpQT8jt0v1apSOE-1P-228" value="" style="curved=1;endArrow=classic;html=1;rounded=0;exitX=0.067;exitY=0.3;exitDx=0;exitDy=0;exitPerimeter=0;entryX=0.267;entryY=0;entryDx=0;entryDy=0;entryPerimeter=0;" edge="1" parent="1">
          <mxGeometry width="50" height="50" relative="1" as="geometry">
            <mxPoint x="820.0099999999995" y="-370.5" as="sourcePoint" />
            <mxPoint x="838.0099999999995" y="-388.5" as="targetPoint" />
            <Array as="points">
              <mxPoint x="803.98" y="-398.5" />
              <mxPoint x="833.98" y="-408.5" />
            </Array>
          </mxGeometry>
        </mxCell>
        <mxCell id="eYWpQT8jt0v1apSOE-1P-229" value="&lt;font style=&quot;font-size: 10px&quot;&gt;1,0 -&amp;gt; 1,0, R&lt;/font&gt;" style="text;html=1;strokeColor=none;fillColor=none;align=center;verticalAlign=middle;whiteSpace=wrap;rounded=0;" vertex="1" parent="1">
          <mxGeometry x="775.99" y="-431.5" width="60" height="30" as="geometry" />
        </mxCell>
        <mxCell id="eYWpQT8jt0v1apSOE-1P-230" value="&lt;font style=&quot;font-size: 17px&quot;&gt;&lt;b&gt;REVERSE&lt;/b&gt;&lt;/font&gt;" style="rhombus;whiteSpace=wrap;html=1;fontSize=10;" vertex="1" parent="1">
          <mxGeometry x="1040" y="-440" width="180" height="180" as="geometry" />
        </mxCell>
        <mxCell id="eYWpQT8jt0v1apSOE-1P-232" value="# -&amp;gt; #, L" style="text;html=1;strokeColor=none;fillColor=none;align=center;verticalAlign=middle;whiteSpace=wrap;rounded=0;fontSize=10;" vertex="1" parent="1">
          <mxGeometry x="940" y="-380" width="60" height="30" as="geometry" />
        </mxCell>
      </root>
    </mxGraphModel>
  </diagram>
</mxfile>
